Coordinates
version=1
nRows=7
nColumns=40
inDegrees=yes

Units are S.I. units (second, meters, Newtons, ...)
If the header above contains a line with 'inDegrees', this indicates whether rotational values are in degrees (yes) or radians (no).

endheader
time	pelvis_tilt	pelvis_list	pelvis_rotation	pelvis_tx	pelvis_ty	pelvis_tz	hip_flexion_r	hip_adduction_r	hip_rotation_r	knee_angle_r	knee_angle_r_beta	ankle_angle_r	subtalar_angle_r	mtp_angle_r	hip_flexion_l	hip_adduction_l	hip_rotation_l	knee_angle_l	knee_angle_l_beta	ankle_angle_l	subtalar_angle_l	mtp_angle_l	lumbar_extension	lumbar_bending	lumbar_rotation	arm_flex_r	arm_add_r	arm_rot_r	elbow_flex_r	pro_sup_r	wrist_flex_r	wrist_dev_r	arm_flex_l	arm_add_l	arm_rot_l	elbow_flex_l	pro_sup_l	wrist_flex_l	wrist_dev_l
      2.70000000	    -19.34243400	     -5.05510256	      1.66264496	     -0.35505602	      0.84498901	     -0.72872008	     59.38673528	      7.29318642	     -6.41236507	     66.55403460	      1.16158703	     22.10108735	      0.00000000	      0.00000000	     21.20365562	     -5.17680512	      5.99156445	     88.53491995	      1.54522586	     -8.83847753	      0.00000000	      0.00000000	    -18.29669863	      8.20790507	      4.19003980	     89.91596940	    -15.04606036	     13.03245354	     54.86756323	     87.06213054	      0.00000000	      0.00000000	     89.91943344	     -7.09315789	     12.53954808	     51.41197146	     85.63344141	      0.00000000	      0.00000000
      2.70500000	    -19.40458860	     -5.14412499	      1.65534251	     -0.35521771	      0.84403197	     -0.72862984	     59.55961741	      7.32579067	     -6.53518117	     66.72043161	      1.16449121	     22.17417306	      0.00000000	      0.00000000	     21.26322727	     -5.29257971	      5.97164587	     88.59858164	      1.54633696	     -8.84856142	      0.00000000	      0.00000000	    -18.29021325	      8.29661321	      4.24440329	     89.91631166	    -15.03672561	     13.01582082	     54.86072477	     87.11640653	      0.00000000	      0.00000000	     89.91959556	     -7.05483498	     12.50534793	     51.41112910	     85.50951584	      0.00000000	      0.00000000
      2.71000000	    -19.48783938	     -5.16610296	      1.62672876	     -0.35543320	      0.84303980	     -0.72860508	     59.76638484	      7.31798029	     -6.58694076	     66.92523970	      1.16806579	     22.23382421	      0.00000000	      0.00000000	     21.33306909	     -5.34586507	      5.87900164	     88.64035732	      1.54706609	     -8.89238021	      0.00000000	      0.00000000	    -18.27432570	      8.32260747	      4.28292384	     89.91656112	    -14.99991193	     12.95391341	     54.86764062	     87.14856613	      0.00000000	      0.00000000	     89.91958843	     -7.02453768	     12.43827995	     51.43589221	     85.31159093	      0.00000000	      0.00000000
      2.71500000	    -19.52557393	     -5.26437212	      1.61527223	     -0.35560435	      0.84222936	     -0.72851458	     59.89756289	      7.34926475	     -6.73928481	     67.05856100	      1.17039268	     22.28370984	      0.00000000	      0.00000000	     21.36752547	     -5.47384942	      5.85469714	     88.68388019	      1.54782570	     -8.94993929	      0.00000000	      0.00000000	    -18.31462592	      8.42819503	      4.32612744	     89.91686109	    -14.96150850	     12.93462202	     54.88441259	     87.08448301	      0.00000000	      0.00000000	     89.91994574	     -7.01622604	     12.34947153	     51.46623753	     85.47880892	      0.00000000	      0.00000000
      2.72000000	    -19.58181751	     -5.33681983	      1.56545696	     -0.35571840	      0.84131548	     -0.72839655	     60.04846951	      7.40800403	     -6.81564265	     67.20234777	      1.17290223	     22.33063017	      0.00000000	      0.00000000	     21.39530467	     -5.59391674	      5.79472986	     88.74077089	      1.54881863	     -8.84872433	      0.00000000	      0.00000000	    -18.32715024	      8.49225928	      4.41161496	     89.91712913	    -14.96676138	     12.94721516	     54.92966696	     86.89930189	      0.00000000	      0.00000000	     89.92010226	     -6.99947475	     12.30057632	     51.48876217	     85.86741110	      0.00000000	      0.00000000
      2.72500000	    -19.64992070	     -5.36879667	      1.51044962	     -0.35594146	      0.84035619	     -0.72828695	     60.24606402	      7.41705862	     -6.91425683	     67.41121301	      1.17654762	     22.40863750	      0.00000000	      0.00000000	     21.44725720	     -5.64974936	      5.70482466	     88.76859812	      1.54930431	     -8.94591608	      0.00000000	      0.00000000	    -18.33233346	      8.51556903	      4.48356191	     89.91727577	    -14.93637678	     12.90423522	     54.91343670	     87.09535385	      0.00000000	      0.00000000	     89.92049389	     -6.98885444	     12.32200062	     51.54346630	     85.33498939	      0.00000000	      0.00000000
      2.73000000	    -19.68611500	     -5.42434615	      1.49434592	     -0.35602292	      0.83952839	     -0.72822174	     60.36512312	      7.43124903	     -7.00445526	     67.54680961	      1.17891423	     22.46540370	      0.00000000	      0.00000000	     21.45681794	     -5.73082282	      5.66293467	     88.79786131	      1.54981505	     -8.99997043	      0.00000000	      0.00000000	    -18.36171547	      8.57504862	      4.49881088	     89.91793879	    -14.86166939	     12.85247623	     54.92206489	     87.07501768	      0.00000000	      0.00000000	     89.92028715	     -6.97770296	     12.20888155	     51.54995764	     85.45297159	      0.00000000	      0.00000000
